<?xml version="1.0" encoding="UTF-8"?>
<svg width="20px" height="20px" viewBox="0 0 20 20" version="1.1" xmlns="http://www.w3.org/2000/svg" xmlns:xlink="http://www.w3.org/1999/xlink">
    <!-- Generator: Sketch 51.3 (57544) - http://www.bohemiancoding.com/sketch -->
    <title>Artboard</title>
    <desc>Created with Sketch.</desc>
    <defs></defs>
    <g id="Artboard" stroke="none" stroke-width="1" fill="none" fill-rule="evenodd">
        <path d="M16.245371,9 L17,9 C18.1045695,9 19,9.8954305 19,11 L19,12 C19,12.7420596 18.5958679,13.389729 17.9956911,13.734921 C17.9985563,13.8229287 18,13.9112957 18,14 L18,19 L2,19 L2,14 C2,13.9112957 2.00144369,13.8229287 2.00430886,13.734921 C1.40413209,13.389729 1,12.7420596 1,12 L1,11 C1,9.8954305 1.8954305,9 3,9 L3.75462905,9 C5.02421742,7.41624133 6.88376211,6.32578488 9,6.06189375 L9,4.73243561 C8.40219863,4.38662619 8,3.74028236 8,3 C8,1.8954305 8.8954305,1 10,1 C11.1045695,1 12,1.8954305 12,3 C12,3.74028236 11.5978014,4.38662619 11,4.73243561 L11,6.06189375 C13.1162379,6.32578488 14.9757826,7.41624133 16.245371,9 Z M4,17 L16,17 L16,14 C16,10.6862915 13.3137085,8 10,8 C6.6862915,8 4,10.6862915 4,14 L4,17 Z M8,11 C8.55228475,11 9,11.4477153 9,12 C9,12.5522847 8.55228475,13 8,13 C7.44771525,13 7,12.5522847 7,12 C7,11.4477153 7.44771525,11 8,11 Z M12,11 C12.5522847,11 13,11.4477153 13,12 C13,12.5522847 12.5522847,13 12,13 C11.4477153,13 11,12.5522847 11,12 C11,11.4477153 11.4477153,11 12,11 Z" id="Combined-Shape" fill="#000000" fill-rule="nonzero"></path>
    </g>
</svg>